<svg width="24" height="22" viewBox="0 0 24 22" fill="none" xmlns="http://www.w3.org/2000/svg">
<path fill-rule="evenodd" clip-rule="evenodd" d="M12.5942 1.2125C12.2486 0.929157 11.751 0.929162 11.4054 1.21251L1.3432 9.46229C1.03691 9.71341 0.921489 10.1299 1.05483 10.5029C1.18817 10.8758 1.54151 11.1247 1.93758 11.1247H3.39478L4.13981 19.2669C4.21342 20.0713 4.88801 20.687 5.69577 20.687H9.18771C9.53288 20.687 9.81269 20.4072 9.81269 20.062V15.2592C9.81269 13.3842 11.3425 13.3842 11.6876 13.3842H12.3126C12.6578 13.3842 14.1876 13.3842 14.1876 15.2592V20.062C14.1876 20.4072 14.4674 20.687 14.8126 20.687H18.3046C19.1123 20.687 19.7869 20.0713 19.8606 19.2669L20.6056 11.1247H22.0624C22.4585 11.1247 22.8118 10.8758 22.9452 10.5029C23.0785 10.1299 22.9631 9.71339 22.6568 9.46228L12.5942 1.2125Z" fill="white" stroke="black" stroke-width="2" stroke-linejoin="round"/>
</svg>
