<svg width="10" height="12" viewBox="0 0 10 12" fill="none" xmlns="http://www.w3.org/2000/svg">
<path d="M5.00001 1.05263C2.81529 1.05263 1.05263 2.80595 1.05263 4.95846C1.05263 5.43373 1.26166 6.02415 1.64139 6.67946C2.01514 7.32443 2.5237 7.98048 3.05149 8.5736C3.57793 9.1652 4.11296 9.6824 4.53047 10.0493C4.71828 10.2144 4.8783 10.3455 5.00001 10.4377C5.12172 10.3455 5.28174 10.2144 5.46955 10.0493C5.88706 9.6824 6.42209 9.1652 6.94852 8.5736C7.47632 7.98048 7.98488 7.32443 8.35862 6.67946C8.73836 6.02415 8.94739 5.43373 8.94739 4.95846C8.94739 2.80595 7.18473 1.05263 5.00001 1.05263ZM0 4.95846C0 2.21536 2.24322 0 5.00001 0C7.7568 0 10 2.21536 10 4.95846C10 5.70709 9.68478 6.49039 9.26939 7.20723C8.84801 7.9344 8.29057 8.64891 7.73489 9.27336C7.17786 9.89934 6.61194 10.4467 6.16442 10.84C5.94119 11.0362 5.74242 11.1984 5.58524 11.3145C5.50769 11.3718 5.43233 11.4238 5.36464 11.4639C5.33136 11.4836 5.29056 11.5061 5.24625 11.5252L5.24582 11.5254C5.21772 11.5376 5.12196 11.579 5.00001 11.579C4.87806 11.579 4.7823 11.5376 4.7542 11.5254L4.75377 11.5252C4.70946 11.5061 4.66866 11.4836 4.63538 11.4639C4.56769 11.4238 4.49233 11.3718 4.41477 11.3145C4.2576 11.1984 4.05883 11.0362 3.8356 10.84C3.38808 10.4467 2.82216 9.89934 2.26513 9.27336C1.70945 8.64891 1.15201 7.9344 0.730628 7.20723C0.315237 6.49039 0 5.70709 0 4.95846ZM5.00001 3.54571C4.35951 3.54571 3.84869 4.05882 3.84869 4.68145C3.84869 5.30408 4.35951 5.81719 5.00001 5.81719C5.64051 5.81719 6.15133 5.30408 6.15133 4.68145C6.15133 4.05882 5.64051 3.54571 5.00001 3.54571ZM2.79606 4.68145C2.79606 3.46823 3.78744 2.49308 5.00001 2.49308C6.21258 2.49308 7.20396 3.46823 7.20396 4.68145C7.20396 5.89467 6.21258 6.86982 5.00001 6.86982C3.78744 6.86982 2.79606 5.89467 2.79606 4.68145Z" fill="black" fill-opacity="0.5"/>
</svg>
